/* XPM */
static char *_dee630854f54514fd885e9ae77f0b48zb9VCbn5Vkl1mvM2[] = {
/* columns rows colors chars-per-pixel */
"64 64 191 2 ",
"   c #003700",
".  c #003D00",
"X  c #5F0000",
"o  c #640000",
"O  c #6C0000",
"+  c #740000",
"@  c #7C0000",
"#  c #7D1500",
"$  c #472708",
"%  c #462D0A",
"&  c #4D2C0A",
"*  c #532E0B",
"=  c #592F0C",
"-  c #47310C",
";  c #49340D",
":  c #493A0E",
">  c #56310C",
",  c #5A340D",
"<  c #5D390E",
"1  c #60370D",
"2  c #60390E",
"3  c #4F3221",
"4  c #483D2D",
"5  c #533422",
"6  c #543925",
"7  c #5B3A25",
"8  c #553D2A",
"9  c #5B3D2A",
"0  c #613B26",
"q  c #633E29",
"w  c #004400",
"e  c #004C00",
"r  c #005300",
"t  c #005B00",
"y  c #006300",
"u  c #006B00",
"i  c #007300",
"p  c #007B00",
"a  c #2E4137",
"s  c #2F4639",
"d  c #31473D",
"f  c #314A3D",
"g  c #4C422E",
"h  c #54412D",
"j  c #5C412D",
"k  c #4D4332",
"l  c #524534",
"z  c #5B4432",
"x  c #554936",
"c  c #554739",
"v  c #564B3A",
"b  c #5B4D3C",
"n  c #57513D",
"m  c #5B513D",
"M  c #63432D",
"N  c #69442D",
"B  c #624733",
"V  c #684731",
"C  c #634936",
"Z  c #6A4B35",
"A  c #634C3B",
"S  c #6A4D39",
"D  c #66503F",
"F  c #6E513C",
"G  c #7E5439",
"H  c #334C43",
"J  c #345245",
"K  c #34544A",
"L  c #38544E",
"P  c #36594D",
"I  c #365652",
"U  c #365B54",
"Y  c #385C54",
"T  c #375C59",
"R  c #385B58",
"E  c #574F40",
"W  c #5B4F41",
"Q  c #575140",
"!  c #5C5241",
"~  c #645341",
"^  c #6D5441",
"/  c #6F5D44",
"(  c #625648",
")  c #705643",
"_  c #6F6249",
"`  c #75644C",
"'  c #78694F",
"]  c #7A694F",
"[  c #7A6954",
"{  c #7A6C54",
"}  c #7F6D59",
"|  c #7F715A",
" . c #840000",
".. c #8B0000",
"X. c #940000",
"o. c #9D0000",
"O. c #821700",
"+. c #851800",
"@. c #8B1A00",
"#. c #911C00",
"$. c #A30000",
"%. c #AC0000",
"&. c #B30000",
"*. c #BC0000",
"=. c #972900",
"-. c #9B2B00",
";. c #A32E00",
":. c #A53200",
">. c #AA3400",
",. c #AF3B00",
"<. c #B53B00",
"1. c #B33D00",
"2. c #C40000",
"3. c #CC0000",
"4. c #D10000",
"5. c #D80000",
"6. c #B54100",
"7. c #BC4300",
"8. c #BF4800",
"9. c #BB5E00",
"0. c #BD6C00",
"q. c #BE7000",
"w. c #84553B",
"e. c #89583D",
"r. c #C34500",
"t. c #C44B00",
"y. c #CA4C00",
"u. c #C65100",
"i. c #CC5200",
"p. c #D25300",
"a. c #C46400",
"s. c #C36B00",
"d. c #CB6D00",
"f. c #C37400",
"g. c #855C40",
"h. c #895B41",
"j. c #866243",
"k. c #896245",
"l. c #87664C",
"z. c #8A664B",
"x. c #806A4F",
"c. c #8D6A4D",
"v. c #95694B",
"b. c #926D4E",
"n. c #806D54",
"m. c #806E54",
"M. c #8C6B53",
"N. c #806E5A",
"B. c #936E52",
"V. c #817154",
"C. c #80725A",
"Z. c #84745C",
"A. c #8A755E",
"S. c #85795F",
"D. c #8A795F",
"F. c #947154",
"G. c #95735B",
"H. c #9B7759",
"J. c #A37B58",
"K. c #857964",
"L. c #8A7C64",
"P. c #907D64",
"I. c #9F7D63",
"U. c #008400",
"Y. c #CC8200",
"T. c #CC8B00",
"R. c #94825D",
"E. c #988364",
"W. c #988964",
"Q. c #908169",
"!. c #A08464",
"~. c #A08964",
"^. c #A0846C",
"/. c #A38C6C",
"(. c #A78F73",
"). c #A79573",
"_. c #AE9673",
"`. c #AB9C73",
"'. c #AF977B",
"]. c #AF9C7B",
"[. c #B69E73",
"{. c #B69C7B",
"}. c #AFA27B",
"|. c #B6A37B",
" X c #B69E82",
".X c #AFA582",
"XX c #B6A282",
"oX c #BEA582",
"OX c #BAA886",
"+X c #BEA98A",
"@X c #C5B08C",
/* pixels */
"l v b c l l l l b b b v v n x k k v n n v v m ! n v Q ! W v c ! v v v k l k x v ! m l g x n x m x l v n v l l v l z v m m S n n ",
"{ { ] [ n.n.[ / ` [ ` ` [ Z.Z.} | [ ' | K.Q.K.{ { { | K.K.[ | K.{ | S.A.S.S.S.L.D.K.D.S.V.| | | | { | | n.[ ] N.A.Z.M.{ V.A.D.L.",
"v b v l l v W W ! m ! m m ! m ! ! ! Q ! m ! n m v v v ! v c l v ! b v l l v b ! v c v E n x v v v v x x v x c l l l x b x x v n ",
"* 1 , , > , , & & > & , , , & , & , , , < , , & , > , , * & , , , < * > , = * * * , = * , > < , > , , , * * = * = * * * * * * > ",
"> ; w w e t y u y y t e w e & , & , = * < > , & , , , , > & * , 1 < , * , * = , * , , & * , < , & , , , > * , ; 3 7 M N M 7 ; * ",
"1 ; w w r t u u y u t e e e ; , = * & & , = = % , & , * , * , , , < & , , * * , * , , & * , < , * > * > , = , ; 3 7 N N q 7 % & ",
", ; w w r t u u u y t r e e ; , , * = * , , > & , > , , , * , , , , & , , , * , > , = & = * 2 , > , * * , > , ; 6 M N V M 9 % & ",
"& ; w . e t u u u u t t e e ; , , % T R T : = ; * & , & > ; , , = , & , , , & , > = * $ , * < < , , * > , = * ; 6 j V N 9 8 % & ",
"& ; w w r y u u u u y r e e ; , , ; T T T % = , > > > $ , & < > & , $ , < = > > > & $ * = & 2 , = , & * 2 $ , % 8 M C S B z % = ",
"& - w w r t u i u u y t r r % * , % T T T % , > , > , * 1 & < , & , % = , > * > = , = * , & < , = , * > , & = ; z C ^ F C z % , ",
", % w . e y i p i i u t r e - > , % T R T % , & , * , , , * 2 , & * & , , , & * * , = * , & , , , , * * , * = % b A ) ^ A z % > ",
", % w w r t u p i i u t r r ; , = % T T T ; , $ , * = , , & , , & = $ , = > & & & = ; X # ;.t.8.t.i.>.#.O - > % b A ^ F A z % ; ",
", % e w e t u u i i u t r e % > , % T T T % = & , $ * * , > , , , , = , = > $ > * * ; o O.:.y.t.u.i.,.@.O - = % A ~ ^ ^ A c % = ",
"* % w w r t u u u u y t e r % > > % T T T % > * , & , & : 3.&.....%.2.; ; > $ , , & % o +.:.y.u.i.i.<.@.O % > % A ~ ^ ^ A z ; , ",
"* & w w r t u u u u t r e r ; , , % T R T % % G.F.M.; $ ; *.$.....%.2.; = , * , , & ; O @.>.u.i.i.p.>.@.O : = $ A ~ ) ^ A z % & ",
"= % w w e t u u u u y r e r - , > ; U I I % - F.F.l.; & : *.$. . .$.2.; , , , < , & ; O @.:.u.p.i.i.<.#.O ; = % z ^ ) ^ A z ; & ",
", ; w w r y u u y y t r e e - > , : P K P ; ; M.B.b.; , ; *.o.@ @ $.2.; , , > , > > : O @.>.u.i.i.p.<.#.O ; , % b W ) ) C z ; & ",
"& % w w r t u u y y t r w e - , , % P K K ; ; M.F.c.; , ; 2.$. . .%.3.; , * & , , > ; O @.>.u.i.p.p.<.@.O ; , % A ~ ^ ^ C z - > ",
"> % w e r y u y u y r r e w % , > % K J K ; ; c.b.c.% , ; 3.%...X.%.3.; > $ & , * & : O @.,.i.i.p.p.>.@.o ; > % z ~ ^ S z l % > ",
", - e w r y u y y y r r w w ; < * % P J K - ; z.B.l.% , ; 2.%...X.&.3.; > & & , & & - O @.:.i.p.i.y.>.+.o - , % c A S C j h - > ",
", - w e r y u u y t r r w w : < > ; P K K % ; l.B.l.% * ; 2.%.....&.3.; , & $ = = & % O @.>.u.u.y.t.:.+.o ; , - x A Z j j h ; > ",
"> - w w r y u y t r r e w w : , & : P K K % - l.B.l.; & % 2.%.....%.3.; , = % * , , ; o @.>.t.t.t.t.:.+.o ; , ; j z C j j 9 : > ",
"& ; e w r y u u t r r e w w ; , * - P K K - - l.B.z.% * % 2.%...X.%.4.; , , % , > , ; o @.:.t.t.t.t.>.@.O ; = ; z C M j j 6 ; , ",
"> ; w e r y u y t t r e . w ; , * % K K K ; - l.M.z.; * ; 2.%.X...%.4.% ; T.d.d.q.& ; o +.:.t.t.t.t.:.@.O ; , ; C C j j 7 6 % < ",
"> ; e e t y u u y t e e . w % , * % K K P ; ; M.G.B.- > % 2.%.....&.5.; ; T.d.s.q.- % o O.:.r.t.8.8.:.@.O % , % C C V N 9 5 - > ",
", ; e e t y i u y t r r w w ; * , % L I U ; ; B.G.A.; > ; 2.%.....%.4.- - T.s.0.q.% % X # ;.8.8.8.r.:.@.O % , % z C S V j 6 - > ",
", ; e w t y i i u t r r w e ; > , - U I T - & G.G.G.; > % 2.%.....$.3.; ; Y.s.a.q.% % o O.:.8.8.6.8.>.@.O % , % z C S Z j 6 - , ",
", % e e t y i u y y r e w w ; > * % T T T % ; G.H.G.- > ; *.$. . .$.2.; ; T.s.s.f.% ; o +.:.t.8.6.8.>.@.O % , % h C S Z j 6 ; , ",
", & e e r y u u u t r e w w ; , * & T T T % ; P.E.I.; * & *.$. . .$.3.; ; T.d.d.f.; > o O.:.8.8.6.8.>.@.o - , % l C S C j 6 ; , ",
"! b v v v v c 4 k 4 4 l v E b v v v v W ! ! ! ( ! ! ! b m ! ~ b b ! ~ A ! ~ ! W x v ! n v v v n v v ! ! ! ! ~ ! c v v v n v v v ",
"} Z.Z.L.P.P.L.Z.L.K.| K.A.K.N.N.Z.Z.| | Z.} | Z.K.Z.[ ` ` ] { n.` ` ] Z.} { ` / | A.K.K.| | | Q.{ | D.S.| { Z.S.S.S.Z.S.Z.K.K.Q.",
"].].XX+X@X+X X).^.H.E.W.).'.{. XXX X}. XXXXXXX+XXXXXoX+XoX_./.W.!.E./.(.W.I./. XoXoXXX).`.}.OX.X|./.R./.|.OX`.E.E.E.).).).).).).",
"E./._.{.{.{.XXXX[.|.|.|.{.|.|.@X_.{.{.{._./.(.~.W.W./.)._.].XXXX{./.D./.|.'.W.W.+XXX}.).].OX@X@X+X'./.).XX+X X XW.(.!.^.). XXX'.",
"Z.V.{ [ [ Z.S.S.L.L.D.D.D.D.n.{ ] ` / ` n.N.N.{ Z.S.L.P.L.S.S.Z.S.Z.Z.Z.S.| | D.| | Z.| S.K.D.S.{ { [ { ] ` [ } Z.Z.[ ` N.S.K.Z.",
"m v k k l x x x l l k l v b b m W A c v l c v c b m ! m v b v v ! b ! ! ! m v ! ! ! W W n m m b W b v b ! Q ! E m ! ! W ! ! W b ",
"* * > , > , > * 2 , , , , > > , , * 1 1 , 2 = * & , & , * , , ; * , , * > , , < = * , , , , > * , < ; > , , , , , & < & , * , * ",
", * , , = > , * , , , , , * & , , & , 2 ; z A S S z 8 ; > , , , * * , * & < > < , * , , , , & = , ; . w e t y y u u y r w w ; * ",
", , = , = , , & , , , , , * & , , * , , - z z S C B z ; > , > > & * 1 & & , , > , * * , , , = * 1 ;     e t u u u i y t w w ; & ",
", , = , , , , > , , 1 , * > * > , , , , ; z B S S A z % & , , % * & 1 > & , > > , & * , * = * & 1 ;     e t u u i i y t e w ; > ",
"* , * , , , , > , > 2 , * > , > * = * , ; 9 B S S A 8 % & , , & = $ , , ; > , , 2 & & Y I Y & & , & . . e r u u u i u t e e ; , ",
"* = , > * , , = , , , , & = , = , * * , ; z z S F C z % > , > , , , * , , * , > ; , ; T I K ; & , ; .   e t u y u u y t e r ; , ",
"& > , > * * * = = , , , > * , , & , , , ; 8 C S F C B ; > , > , 1 , * = * = < , * * % U L J ; > , ; . . w r y y y y t r e e : , ",
"$ , , = , * * * = , = 1 , * = * % , , , ; z B F F S z : > , , , , , , * & , < ; & * % U I P ; , , ; w   w r y y y y r e w e ; & ",
"$ , , * , = * ; o O.-.7.7.1.<.;.# o ; , % 9 C S F C z : ; , , * > , , * * , , & & > $ U U U & 1 , ; w . e e t t y t r w w w ; & ",
"* * , * * , , & o # =.7.r.7.1.:.+.o ; , ; z z S F C z ; * , , , > , > , > > , & > , % Y Y Y ; , & % w w e r t t y y r w . w ; > ",
"* * * * * * , - X # -.7.r.7.6.-.+.o % , ; 8 B Z S C z : % 2.$... .$.2.& , & , , , , % Y Y Y ; , & % w w e r y y y t e w . w - , ",
"* * , , * * , - o # ;.r.r.1.6.-.+.o ; , ; 9 9 S F C z ; % 2.$. . .$.2.; * & z.B.c.: ; Y Y Y ; , * % w w r r t y t t e e . w - ; ",
"* , , , * > , - o O.;.r.r.7.6.-.O.o ; , - 9 j Z S C j ; % *.o. . .$.*.- & % k.v.k.; ; L I Y ; , , ; w e r r y y t t r w . . - , ",
"* & * , > , , % o +.;.r.r.r.<.;.# o : , - h j V V M j - % *.o. .@ o.&.- > ; w.e.h.; ; K L P - , , % w w r t y y t t r w . w % * ",
", & * > > > , ; o O.;.<.7.7.7.;.O.o ; , ; 8 M V M j 6 - % *.o. .@ o.&.- = ; w.e.w.; ; f H J - , , % w e r t y y t t e w . w ; & ",
"* & * , > > , ; O @.:.r.r.r.r.;.# o % , ; 6 j N N 7 6 ; % &.X.@ @ X.&.% = : w.w.w.% & f H J - , , % e w t y y y t t e w . . % > ",
"> * > > > , , & O @.>.y.y.r.y.:.O.o ; > : 9 q M N j 5 ; ; &.X.@ @ X.%.% > ; w.e.G ; ; f H J - > = % e e r y u t t r e w .   ; , ",
"* , , , * , , % O +.;.r.r.7.7.;.O.o ; , ; 7 0 N N 0 5 ; ; &.X.@ @ X.&.; * - e.k.g.; % H d H ; > , ; e e r y u t t t e e w . - * ",
"> , , , * , * % o O.;.7.<.r.<.-.# X - , ; 5 0 N M 7 3 ; ; &.X.@ + X.&.; * % c.J.b.% ; s a s : > , ; e e r y u y t t r e w w % * ",
"> > > > , , * % o O.;.8.8.<.<.-.# X % > ; 5 7 M 0 7 5 ; - %.X.@ + o.*.; & % b.J.H.% % d a s ; , , % e e t y i y y t r e w w % & ",
"> % Y.a.9.0.; ; o O.-.7.7.7.6.-.# o ; > % 5 7 0 0 0 5 ; % &.X.@  .$.2.% & % F.J.F.% % f a a ; , > % r r t u i u u y r w . w ; * ",
", ; f.a.u.0.; % o @.;.8.7.6.6.-.# o ; > % 6 j N V N 8 ; % *.$. . .%.3.% > % F.J.b.; ; J H J - , & ; e e y u i i y y r e . w ; * ",
", ; Y.a.0.0.; % O +.;.7.1.6.6.=.# o ; < ; 6 j Z S N 8 ; % *.o. . .$.2.; > - b.H.c.; ; J J K ; , $ ; w e r u p u u u t w . . & * ",
", ; Y.d.a.s.% ; O +.;.1.,.,.1.-.O.o - , ; 6 j Z S V j ; - *.$. . .$.2.; , ; b.F.k.; - J J P ; < & ; w e t i p i u u t e .   - > ",
", & Y.s.a.0.; ; o @.;.6.6.1.6.-.# o - , ; 4 M S F B 8 ; ; *.$. . .o.*.; < ; b.v.j.- - J J U ; , , ; r r y i U.p u i t e w . ; , ",
"* ; Y.a.a.0.; & O @.;.8.,.6.6.-.# o % > : h j F F B h ; ; *.$... .o.*.; , ; v.v.g.; & K J U ; , , ; r r y i U.p u i y r w w & , ",
"Q ! ! ~ m ! v v ( ! v x x b l c l l k h h x m D l l h l b v v c ! m b v b x v v ! b ! W v v b ~ l v l v ! m b x b W ~ ! b c v m ",
"K.K.P.P.L.| Z.S.S.{ [ { x.[ n.n.| { { { V.V.| S.Z.S.V.V.] ` / / Z.n.` ] { Z.S.D.l.N.N.K.V.[ [ Z._ ` ` ' Z.Z.V.` n.N.K.Z.n.{ { n.",
"m v k l n ( b k g l b ! v z x v m v x m m x x h n m ! m v c l v l v x b b b b b v l 4 4 l v x v x v x v v b v v b b b b v b b c "
};
