/* XPM */
static char *_6592040bc8a4009a682937ea6aecace47tTdarAVvkk9AKX[] = {
/* columns rows colors chars-per-pixel */
"64 64 46 1 ",
"  c #2E271E",
". c #352D23",
"X c #373026",
"o c #393126",
"O c #3D3529",
"+ c #3F382C",
"@ c #40372B",
"# c #42392D",
"$ c #463E30",
"% c #483F31",
"& c #464032",
"* c #4D4334",
"= c #514636",
"- c #534738",
"; c #564A3A",
": c #5A4E3C",
"> c #5D513F",
", c #584F40",
"< c #5E5341",
"1 c #625542",
"2 c #665945",
"3 c #695B46",
"4 c #675C48",
"5 c #6B5E49",
"6 c #6E614B",
"7 c #72634D",
"8 c #6F6550",
"9 c #746650",
"0 c #786750",
"q c #756952",
"w c #7C6B53",
"e c #7E6F58",
"r c #7F7057",
"t c #7E7058",
"y c #816E56",
"u c #817057",
"i c #84735A",
"p c #89765C",
"a c #87785E",
"s c #8B795E",
"d c #877A60",
"f c #8D7C61",
"g c #917E62",
"h c #8E8165",
"j c #938265",
"k c #938369",
/* pixels */
".oOOo@@@..o@@@#@@@o@@o++%#@oo.  .@##@@o@O+#+OXX.XXoX+++&ooo#OOO&",
"o;>:;:>::;::::;@@;:,2:<,2<:;;==o@;><:;==;:<>;;=oo=:<>:;;::>>>;*O",
"#<123331373221>#@,18933352::::,@#:3331:1143321:@o>57945166666>;X",
"o;<yypyyypp0021@o,4fgdpagyw971:@#:3wpy077psfe3:O+16kspwetahii1:o",
".;>0yyyywpsew21##>5afetipyww9<:+#16yyyy00psay3:@#14ppuyshhsur<:@",
".%>3221146625>>+O:<56222323655<$#1676711:11533>@O:>221>276611>:@",
".%::;:>:><1>>>-+#:;:;;,<<,<<12<$#::;=;;>::;:>1;@o=:<>;;;>:::;;=@",
".o@#@@@@+@++##+oO#+++Oooo##$$%$o@@@oo@@#@@@###@..o+&#@OO@O@O@OOo",
"X@@#@@O.Xo@@@O##&&$#ooooo@@@###@@@@.oo@oo@#@%@@oO&&&#@@Xo@@@OOOO",
":><<>>;Oo-::>><<2321<;=o@:>:::1::>>-<:=oo-><1>=%=>>>11:@@::;;;:;",
":13521>@O;<2644635633:;@%2313565765361;oo:1163111132311O@>113367",
"ipppw2>#+*:0hhir7yypu1;O#25wssfhgppps2;oo:1ypsiyyyy0y3:O@;1wpppj",
"yyyyw<;OO*;0sjjp00yye1;O$26eppfksiipp3:@#110wpspyyppu3>@O;1yyupp",
"771252>o@=:1775632123>;@#<>1269q5::1321%$11335775232731Oo::33336",
"1>;:>>=.X*;::;:><:>:<:=oO:;:<<<<=%=:>1:@@;;:;,11>>>111:OO;::::::",
"#@@@##@XXo@@@XXoo@###@OXoOO++##+oXo@###@o@@@@#@#&&&&&#@.XO@@@o@@",
"o@@@@@OO@@@#@ooXXO@@@@+OO$++O++ooX@$+++Oo@@@@@@Xo&&&@#OXo+&++O++",
"o:11121111:;:;*Xo=::>1>:<<<,,<,$X=-,,,,;;:>:;;=OO>>:>::*=:1>:;:&",
"@:231666577776<+@>3356665532<2<$@:,3424<2>31>:=O@>>12221378763>&",
"o:10rhasssiss6<+#17sjfsppeiyi5<+#:2wuqtwy0uu0:*O@13yuriuiissw6>@",
"O:>67wwripsjh6>O#19hfhpspuiuy31##137w0sai0igi1=O@;2wsyiisppsu61#",
"O><16363321361>o+<6qq631331<151@#:31>12212670>=oO:1772<>2232661@",
"O=>>1>;*;=>>>;*X.;<<<<:<11:-;>:@@-:-;::>>:111;=@O**:>:=*::>:>1:O",
"oOOO#+OXXoo###OOXooO+#####@oo@@@X@#@OOOOOO@@@ooo...OOOOoOO@@@@Oo",
"@@OoO+O..O+&##++ooooo+#+O+++@@@@@####O#oOO@O@O@#OXXoO@O.oO+++O@#",
";:;==;;Oo:>1>313:<:::>>++::>>>;;:><:;;:@O=>>>:;:;;:>11;@O*:=>:12",
"231116>+O>6q69662311>>:+O:>53533235521<@@>6w76231116751@O;>66377",
"iyww61;+X=6aphspypip01:Oo;1iggyywwue011#O;1shguw7wisi6>@O*1ihggj",
"hu7061;OX;3sshupuaue7>>oO;2ypppsrrrsa51#@;1ssguuww7uy1;OO=1uuuup",
"61:<11>+O:1631<22655521Oo;133236<<>4675&@=;2377631111<;OO=>>1137",
">;>;><>&+:>>>:;>:>><>:=.X=::===:::->:2>#o*;>1111<>=;>>=OO*==;=;:",
"OOOo&#&+OOXXOOXOo++#++o. O#@oXXXoXooX+#o..O@###@@###@##o..@@OoO@",
".oOX++#&#@o.o@@.XOO#@Oo.XXOoo.X.XO++o+o+O@#@@@@XX@@###%@o@##@o..",
"X*;*;>1>3<:*===oO>;>;>:=;;>=***XO:44<:;::>:;:;;XO=1>1:1::=>>::*o",
"#>>>660676311>;@o;;133323>1>>*;o@<999644276651:@@:116676613371:@",
"&>46rihspuy0y3:@o>1riippiw703>;##28air960pssi1:O#>3ygjjspyppp7>@",
"#>16wriiw060y3>@o=17ywppiw007>;O@>6uir765ussi2>@#15pjjjpy0yyy3>@",
"@;11116631>11>:@@;136333611366>+@;1141>:;1253:;+#2277621>>>213:@",
".&=:>>>>;;=>::=@O=::>;>>>>>>>>=Oo->:1>:=&&->>:;O#>:><<:::=*=;>;@",
"   O@@##O@OOo.@@O@##@Oo+&&&&&#OXXoOO@O@oXX+##@#oo++O@Oo@@@oO@@@.",
"....@@#@@@@@o@##@#@@@OXXo##&&+@@++OO++&XXX+O#@#O@###@#&@@@@@@@@o",
":*%*=;>##>>1>:>>>11>;:=O#>><>>>>>>>;>>>++;>;><1>:<<>>>;@o=>>>:;=",
"1>>22>>#%12777336631>>;##>1212221422666#&<4>33312321121@o;:>1121",
"pu0uy1:@#>3pjgpgihpp0>;@#>20www7upgss8<+#>6ryyyyyyu07>=Oo=>7yyiy",
"gpppi2:@#12ughgppgpu01:#@>20w7w0uphja6>+#17uiyyyuppu01:@@;;7yppp",
"773373>oo:1167621333<<:#@;123255526qq4>O@>21<12337611::@@::31570",
"::>;>>;o.=;=;::=;:=;;:;@O->>;;>>:-><<:=XO;>;:1:::>>:;<>@@=::::13",
"o@@oo@o..o@@@@@oo@@@@@@oXO#OOO@@+O+#&++oO@@@###@O@oOOO#ooo@@@o@@",
"o@@o..oo@@@@@@o.o@%#$@+o@#$#OoX..o#@OoOO@@##%%@X.@@OXoOoOXOXX.XX",
"O;;;=*;;==>1>:%@o:3<1::;,<211;;OO*:::::>:>::::=oO=>;;*:>:-*;;;=o",
"@>12112111231:=@@:659541367664>@o;<3323112<21<=X+>632>161>>352;o",
"#<1yyspu0yyiy>%.@:6yffdiiyyii71#O:1ysfiiypyy0:=XO;3wiiiirripp71@",
"#130rshpyyppy:%..:5wsssiypypy3:@+;10iyywysggu<:oO;1iai0wypipy3<#",
"#1311231>3331:% .=11121112112>:@#;11311137775<;oo;>666>>:11321>#",
"O=;:;;1>:>:>::=..%:==;=;:::;:=:@+;<:;===::<11>=oo;>14>>;==;::;=o",
".XOOOOOo@@@o@@o..Xo@o#@#@@#@@@@o++$O@ooo####@#Ooo#####&Ooo@@@oo.",
"O@@@@@@oO@@@@@Ooo@@@o@ooX@$$+++#&&#OOOO.o&#++#@@@@@@###ooo@@@.oo",
"=:1>>:%O@=>%;;;;;:><::;@@;<1<:=><<::<<;++<24<2:<>>;-:>>@@=1:>===",
"13371>=@@;>>333333662>=oo:145658532563:@+26q68676311>2>#@;113>21",
"3yyyy:;@@:1yyypyppgpy2=@o:1wddhhidafi3:oX:6skffshiw7741##>10yy0y",
"yyyyy>:@@>1yyyyypipiy3;oo:3tpffhigsgu:=Xo:5isshipirw031&%>2yyy07",
"111:311@@113333>336331:@@266235637775<=.X*>365333363213&%111>62>",
":-::11>@@:>:=;=;:<1<>>;O@>2>::>1,1>1::=XX*>>;;::;>:;;>1##::><11:",
"o@@@%%@oo@@@o@@@@#####OoO##O@@#%#####@@XXo@#@OO+##+X@#%@oo@@##%%"
};
