/* XPM */
static char * tile5_xpm[] = {
"32 32 839 2",
"  	c #301929",
". 	c #3F3234",
"+ 	c #4F3A3E",
"@ 	c #6D463B",
"# 	c #743C39",
"$ 	c #6A4042",
"% 	c #7E5B52",
"& 	c #7C4D48",
"* 	c #6C4F4C",
"= 	c #211F30",
"- 	c #51303A",
"; 	c #4C3A44",
"> 	c #78463F",
", 	c #70483D",
"' 	c #332130",
") 	c #332D31",
"! 	c #45353C",
"~ 	c #724D3E",
"{ 	c #7B4E46",
"] 	c #7C383A",
"^ 	c #7A4B42",
"/ 	c #492B32",
"( 	c #583739",
"_ 	c #1D232A",
": 	c #42232F",
"< 	c #2B2D40",
"[ 	c #6D3F3E",
"} 	c #713E39",
"| 	c #754042",
"1 	c #804F47",
"2 	c #5C4247",
"3 	c #5C3C3E",
"4 	c #16243A",
"5 	c #442A2C",
"6 	c #37232E",
"7 	c #75433C",
"8 	c #764C4A",
"9 	c #7E4E41",
"0 	c #4F343C",
"a 	c #2D222D",
"b 	c #523733",
"c 	c #52323B",
"d 	c #7D463D",
"e 	c #8C4E42",
"f 	c #814843",
"g 	c #814E47",
"h 	c #2D1C2A",
"i 	c #482C2F",
"j 	c #3A2532",
"k 	c #73453E",
"l 	c #744544",
"m 	c #52363E",
"n 	c #4B2C33",
"o 	c #3C212D",
"p 	c #353330",
"q 	c #794B42",
"r 	c #6A3A37",
"s 	c #4C4248",
"t 	c #49313D",
"u 	c #451C2F",
"v 	c #2C1A27",
"w 	c #312333",
"x 	c #69474A",
"y 	c #7E493F",
"z 	c #4D3837",
"A 	c #2D2B3A",
"B 	c #4D3B45",
"C 	c #4C2A35",
"D 	c #825342",
"E 	c #784C42",
"F 	c #784F51",
"G 	c #985750",
"H 	c #7E4947",
"I 	c #88554D",
"J 	c #341C2E",
"K 	c #3B3737",
"L 	c #362738",
"M 	c #563842",
"N 	c #502E37",
"O 	c #332D37",
"P 	c #462B2D",
"Q 	c #322434",
"R 	c #6A4142",
"S 	c #764038",
"T 	c #7A4440",
"U 	c #8A4641",
"V 	c #573537",
"W 	c #5E3B34",
"X 	c #312E3C",
"Y 	c #2E262F",
"Z 	c #6F4242",
"` 	c #2F2029",
" .	c #4A313D",
"..	c #5A4046",
"+.	c #2D212C",
"@.	c #342536",
"#.	c #352637",
"$.	c #7C4A47",
"%.	c #814847",
"&.	c #8C5443",
"*.	c #834844",
"=.	c #9C5A4C",
"-.	c #6A3C41",
";.	c #683841",
">.	c #232732",
",.	c #40393B",
"'.	c #482D3B",
").	c #8C534A",
"!.	c #7B5052",
"~.	c #2D1E35",
"{.	c #2B192B",
"].	c #312832",
"^.	c #41252F",
"/.	c #79453B",
"(.	c #6C423A",
"_.	c #473945",
":.	c #7B463C",
"<.	c #7D4641",
"[.	c #7E4641",
"}.	c #191526",
"|.	c #232132",
"1.	c #2B182A",
"2.	c #462D34",
"3.	c #4D2135",
"4.	c #854A44",
"5.	c #935245",
"6.	c #965D54",
"7.	c #99574D",
"8.	c #B16E61",
"9.	c #6E4048",
"0.	c #693D48",
"a.	c #2A273F",
"b.	c #513F50",
"c.	c #583E4D",
"d.	c #A05E4D",
"e.	c #AF6955",
"f.	c #94514A",
"g.	c #8F5A57",
"h.	c #381631",
"i.	c #301E2D",
"j.	c #343A46",
"k.	c #30273A",
"l.	c #4C2D34",
"m.	c #5A323E",
"n.	c #23192F",
"o.	c #471D31",
"p.	c #45323A",
"q.	c #6D3C39",
"r.	c #813B3D",
"s.	c #885C45",
"t.	c #815442",
"u.	c #7F4B43",
"v.	c #2F222E",
"w.	c #2F1F36",
"x.	c #4B2F37",
"y.	c #4D4752",
"z.	c #97564E",
"A.	c #9E625F",
"B.	c #A56561",
"C.	c #BD725F",
"D.	c #714857",
"E.	c #825155",
"F.	c #402C3A",
"G.	c #5C3548",
"H.	c #644455",
"I.	c #AE6864",
"J.	c #A76D68",
"K.	c #A76460",
"L.	c #B8725D",
"M.	c #945656",
"N.	c #9A6056",
"O.	c #3A3536",
"P.	c #1E192D",
"Q.	c #633D41",
"R.	c #643940",
"S.	c #222134",
"T.	c #412739",
"U.	c #473A45",
"V.	c #754645",
"W.	c #71453D",
"X.	c #754B3F",
"Y.	c #74473F",
"Z.	c #896359",
"`.	c #884B47",
" +	c #8B4843",
".+	c #362531",
"++	c #523339",
"@+	c #564243",
"#+	c #A85F59",
"$+	c #AF6A61",
"%+	c #B5675B",
"&+	c #895A60",
"*+	c #7A5665",
"=+	c #312D49",
"-+	c #5D3A54",
";+	c #724956",
">+	c #B8655E",
",+	c #BC736E",
"'+	c #BC7268",
")+	c #B2625B",
"!+	c #B7715F",
"~+	c #C77763",
"{+	c #A46360",
"]+	c #935E5F",
"^+	c #39333F",
"/+	c #3A252E",
"(+	c #361D30",
"_+	c #453845",
":+	c #443745",
"<+	c #80524F",
"[+	c #7F524F",
"}+	c #7E4F4D",
"|+	c #883F41",
"1+	c #89534B",
"2+	c #9D6050",
"3+	c #8B4D47",
"4+	c #915350",
"5+	c #2B3339",
"6+	c #533143",
"7+	c #5B3D4D",
"8+	c #B87261",
"9+	c #855C5A",
"0+	c #8D545B",
"a+	c #413044",
"b+	c #613C4E",
"c+	c #623C4F",
"d+	c #C16A63",
"e+	c #C3706B",
"f+	c #C56E6B",
"g+	c #C87664",
"h+	c #C67A73",
"i+	c #BC7063",
"j+	c #BC6966",
"k+	c #D37E64",
"l+	c #C47360",
"m+	c #362540",
"n+	c #2E2D43",
"o+	c #413142",
"p+	c #4E3C44",
"q+	c #8A5241",
"r+	c #885140",
"s+	c #7A4948",
"t+	c #835552",
"u+	c #895241",
"v+	c #864642",
"w+	c #8D4D4E",
"x+	c #A56257",
"y+	c #A0574F",
"z+	c #AB5F5E",
"A+	c #422E45",
"B+	c #603E4D",
"C+	c #4F354C",
"D+	c #66404C",
"E+	c #462245",
"F+	c #2A2C4D",
"G+	c #554351",
"H+	c #67414D",
"I+	c #C76E64",
"J+	c #C37B76",
"K+	c #C26A63",
"L+	c #C56D69",
"M+	c #C87A6F",
"N+	c #C87A68",
"O+	c #DE886E",
"P+	c #83525F",
"Q+	c #854D5C",
"R+	c #3C2C3C",
"S+	c #222541",
"T+	c #56263D",
"U+	c #4B313B",
"V+	c #8D5443",
"W+	c #88534B",
"X+	c #794645",
"Y+	c #734E51",
"Z+	c #7A423F",
"`+	c #8A4F46",
" @	c #8A605D",
".@	c #A06157",
"+@	c #C2715D",
"@@	c #CA796C",
"#@	c #B87671",
"$@	c #3E3A54",
"%@	c #463E47",
"&@	c #332F4D",
"*@	c #283556",
"=@	c #443F58",
"-@	c #2F3346",
";@	c #544E63",
">@	c #5A3B50",
",@	c #C17573",
"'@	c #E3917F",
")@	c #94615E",
"!@	c #8F575E",
"~@	c #29233F",
"{@	c #654A52",
"]@	c #283A50",
"^@	c #482F45",
"/@	c #4D333E",
"(@	c #3B2B3D",
"_@	c #7D4847",
":@	c #834B43",
"<@	c #7C4445",
"[@	c #885954",
"}@	c #8B584F",
"|@	c #8C4A45",
"1@	c #9A635E",
"2@	c #9B5A5A",
"3@	c #CB7563",
"4@	c #815A58",
"5@	c #83575B",
"6@	c #332F4C",
"7@	c #6D485C",
"8@	c #7D5357",
"9@	c #C26E6C",
"0@	c #C97A6F",
"a@	c #C56D65",
"b@	c #443C50",
"c@	c #5D455C",
"d@	c #624355",
"e@	c #C77167",
"f@	c #954B5C",
"g@	c #95625F",
"h@	c #6F465A",
"i@	c #6C4459",
"j@	c #B9725F",
"k@	c #292D3B",
"l@	c #543D48",
"m@	c #523238",
"n@	c #4A3B49",
"o@	c #7F4B4A",
"p@	c #754648",
"q@	c #7E5544",
"r@	c #8E4344",
"s@	c #974849",
"t@	c #9D5A51",
"u@	c #BC725F",
"v@	c #895B57",
"w@	c #875863",
"x@	c #2A2541",
"y@	c #7B5460",
"z@	c #7B4758",
"A@	c #E68571",
"B@	c #E68E77",
"C@	c #C97C75",
"D@	c #C76B64",
"E@	c #43364A",
"F@	c #664959",
"G@	c #593A55",
"H@	c #8A5160",
"I@	c #875260",
"J@	c #945759",
"K@	c #463E48",
"L@	c #784D5A",
"M@	c #6B5969",
"N@	c #BE7973",
"O@	c #D9816E",
"P@	c #AA675A",
"Q@	c #312F46",
"R@	c #4E2F3A",
"S@	c #3B2B3E",
"T@	c #4A3037",
"U@	c #804C4A",
"V@	c #804C4E",
"W@	c #9B4A4B",
"X@	c #BA7669",
"Y@	c #784C57",
"Z@	c #8A5256",
"`@	c #3D2F44",
" #	c #6A4A57",
".#	c #7A4D58",
"+#	c #724758",
"@#	c #C37366",
"##	c #C9776D",
"$#	c #E58776",
"%#	c #C4716C",
"&#	c #C76F6C",
"*#	c #423045",
"=#	c #68484F",
"-#	c #87595D",
";#	c #3F2B43",
">#	c #745163",
",#	c #7C5A69",
"'#	c #C06962",
")#	c #DC8776",
"!#	c #D38676",
"~#	c #AC5C56",
"{#	c #352738",
"]#	c #503A44",
"^#	c #493A49",
"/#	c #463039",
"(#	c #4F3E3A",
"_#	c #88514E",
":#	c #9D584A",
"<#	c #79525C",
"[#	c #884252",
"}#	c #413447",
"|#	c #70465B",
"1#	c #784F5C",
"2#	c #C87266",
"3#	c #C36E69",
"4#	c #C97263",
"5#	c #C9726B",
"6#	c #E38770",
"7#	c #C67570",
"8#	c #C96D66",
"9#	c #45304B",
"0#	c #393551",
"a#	c #432945",
"b#	c #7B525D",
"c#	c #6A4355",
"d#	c #CA7765",
"e#	c #BE6C67",
"f#	c #D57C6C",
"g#	c #C87568",
"h#	c #9C5655",
"i#	c #392D39",
"j#	c #382D38",
"k#	c #4C3A42",
"l#	c #4D3740",
"m#	c #513240",
"n#	c #774544",
"o#	c #815750",
"p#	c #243150",
"q#	c #65464C",
"r#	c #583954",
"s#	c #51364E",
"t#	c #C47967",
"u#	c #C9766A",
"v#	c #86626D",
"w#	c #90525B",
"x#	c #684E54",
"y#	c #BF6E64",
"z#	c #C06C5E",
"A#	c #CA8165",
"B#	c #BD715D",
"C#	c #964F4A",
"D#	c #3B2C2F",
"E#	c #313347",
"F#	c #392537",
"G#	c #3C3536",
"H#	c #3A2E3C",
"I#	c #372643",
"J#	c #422E3C",
"K#	c #4E3B55",
"L#	c #544350",
"M#	c #C87369",
"N#	c #E28C7D",
"O#	c #936066",
"P#	c #3D2C4C",
"Q#	c #70565A",
"R#	c #6C596A",
"S#	c #2B2542",
"T#	c #5F384F",
"U#	c #C67872",
"V#	c #C06D62",
"W#	c #B16663",
"X#	c #BD6E5D",
"Y#	c #A76D64",
"Z#	c #92574C",
"`#	c #212730",
" $	c #5E2A3C",
".$	c #925050",
"+$	c #A0645A",
"@$	c #3F3747",
"#$	c #3B2948",
"$$	c #5A4459",
"%$	c #614354",
"&$	c #E68975",
"*$	c #854D59",
"=$	c #453042",
"-$	c #3F3B56",
";$	c #653B51",
">$	c #664C5B",
",$	c #584057",
"'$	c #C2706B",
")$	c #BB6C62",
"!$	c #B7706B",
"~$	c #BC755F",
"{$	c #69444E",
"]$	c #6E3A41",
"^$	c #261C34",
"/$	c #8C4844",
"($	c #9D6058",
"_$	c #A0544F",
":$	c #A25E5D",
"<$	c #27223D",
"[$	c #503C4E",
"}$	c #67484E",
"|$	c #584058",
"1$	c #C27066",
"2$	c #8F5363",
"3$	c #935D64",
"4$	c #764557",
"5$	c #6D4F59",
"6$	c #E2826E",
"7$	c #E38876",
"8$	c #362944",
"9$	c #C8716A",
"0$	c #C06762",
"a$	c #D37E67",
"b$	c #804B53",
"c$	c #774B46",
"d$	c #332836",
"e$	c #4B3643",
"f$	c #7C4A4C",
"g$	c #8E4B46",
"h$	c #AC695D",
"i$	c #AA5B56",
"j$	c #B86859",
"k$	c #37344F",
"l$	c #674D53",
"m$	c #533E51",
"n$	c #664F62",
"o$	c #945761",
"p$	c #69495F",
"q$	c #553C54",
"r$	c #603D57",
"s$	c #4C435D",
"t$	c #7C5255",
"u$	c #815751",
"v$	c #321E34",
"w$	c #5A444F",
"x$	c #895755",
"y$	c #925144",
"z$	c #AB6C60",
"A$	c #B6756B",
"B$	c #B66758",
"C$	c #442E48",
"D$	c #453643",
"E$	c #594A52",
"F$	c #683451",
"G$	c #4F4560",
"H$	c #2D2D45",
"I$	c #784957",
"J$	c #E68D74",
"K$	c #3B2743",
"L$	c #29243F",
"M$	c #43343D",
"N$	c #2E233F",
"O$	c #553C4A",
"P$	c #854D4B",
"Q$	c #8C5342",
"R$	c #A96259",
"S$	c #724C56",
"T$	c #834751",
"U$	c #312746",
"V$	c #453642",
"W$	c #44384E",
"X$	c #34294A",
"Y$	c #513D58",
"Z$	c #CA6866",
"`$	c #C87973",
" %	c #E68D6F",
".%	c #E58F7D",
"+%	c #704657",
"@%	c #6F4F60",
"#%	c #B4665A",
"$%	c #3D3645",
"%%	c #543439",
"&%	c #884B46",
"*%	c #8C4143",
"=%	c #864940",
"-%	c #9E6050",
";%	c #6C4346",
">%	c #664348",
",%	c #2F243B",
"'%	c #6F434F",
")%	c #754C59",
"!%	c #6F4C5F",
"~%	c #CA7B68",
"{%	c #8D5A67",
"]%	c #895563",
"^%	c #7C4C54",
"/%	c #78515B",
"(%	c #62445A",
"_%	c #C37662",
":%	c #A16561",
"<%	c #343246",
"[%	c #483039",
"}%	c #7B5956",
"|%	c #894B47",
"1%	c #5C3C45",
"2%	c #5F3E48",
"3%	c #2E2C42",
"4%	c #6A4847",
"5%	c #5E5260",
"6%	c #BA6F6A",
"7%	c #C37671",
"8%	c #C17365",
"9%	c #905F6B",
"0%	c #76485E",
"a%	c #6B495B",
"b%	c #AE6C6B",
"c%	c #C47C68",
"d%	c #B46B56",
"e%	c #955D54",
"f%	c #4E3D39",
"g%	c #664747",
"h%	c #69433B",
"i%	c #372B35",
"j%	c #1F1A2F",
"k%	c #65464E",
"l%	c #573E51",
"m%	c #AE655B",
"n%	c #BA6B67",
"o%	c #C2736E",
"p%	c #E58D6F",
"q%	c #613D58",
"r%	c #93636D",
"s%	c #945C5B",
"t%	c #694254",
"u%	c #754754",
"v%	c #BB675D",
"w%	c #B26559",
"x%	c #A35D54",
"y%	c #A86F55",
"z%	c #9C684F",
"A%	c #874F47",
"B%	c #2E1A2C",
"C%	c #252E2F",
"D%	c #34232E",
"E%	c #1A2941",
"F%	c #232932",
"G%	c #533B4A",
"H%	c #693246",
"I%	c #AE685F",
"J%	c #B96964",
"K%	c #C5766B",
"L%	c #E48971",
"M%	c #754755",
"N%	c #BF6C5D",
"O%	c #AE685C",
"P%	c #9F5C5C",
"Q%	c #A14E4F",
"R%	c #965446",
"S%	c #57333C",
"T%	c #663D3C",
"U%	c #372335",
"V%	c #574044",
"W%	c #584145",
"X%	c #252337",
"Y%	c #2C2A3E",
"Z%	c #4D3D40",
"`%	c #4C4154",
" &	c #A35C52",
".&	c #A85D5B",
"+&	c #B7685E",
"@&	c #B86863",
"#&	c #BD6B66",
"$&	c #C57066",
"%&	c #E38473",
"&&	c #E2907E",
"*&	c #C27366",
"=&	c #4E445F",
"-&	c #573953",
";&	c #6C4353",
">&	c #AF726D",
",&	c #A56457",
"'&	c #A46862",
")&	c #89595B",
"!&	c #6B4B41",
"~&	c #312F40",
"{&	c #44444E",
"]&	c #723E3C",
"^&	c #895947",
"/&	c #52373D",
"(&	c #351C2E",
"_&	c #4E3635",
":&	c #372C41",
"<&	c #98504B",
"[&	c #945757",
"}&	c #A35F5B",
"|&	c #B16C68",
"1&	c #B9685A",
"2&	c #BC7068",
"3&	c #D8856B",
"4&	c #905F5C",
"5&	c #864E5D",
"6&	c #332847",
"7&	c #292B4B",
"8&	c #795758",
"9&	c #C36563",
"0&	c #C06C63",
"a&	c #2C3D56",
"b&	c #543750",
"c&	c #5B3E4E",
"d&	c #523E53",
"e&	c #AA6860",
"f&	c #9A564F",
"g&	c #975F56",
"h&	c #583B47",
"i&	c #69423C",
"j&	c #1F1D31",
"k&	c #47343F",
"l&	c #433638",
"m&	c #7F4E46",
"n&	c #7A4C4A",
"o&	c #865746",
"p&	c #80493F",
"q&	c #32222D",
"r&	c #373B4A",
"s&	c #483A49",
"t&	c #8A4F4D",
"u&	c #9A574E",
"v&	c #9A5755",
"w&	c #A75D54",
"x&	c #C77A6C",
"y&	c #795053",
"z&	c #884F59",
"A&	c #2A3B53",
"B&	c #2B3B53",
"C&	c #704854",
"D&	c #765454",
"E&	c #D57F65",
"F&	c #B26460",
"G&	c #B16260",
"H&	c #2E2441",
"I&	c #593F4E",
"J&	c #563B46",
"K&	c #4C2C3D",
"L&	c #95605B",
"M&	c #6A4648",
"N&	c #65363C",
"O&	c #341C2D",
"P&	c #553B40",
"Q&	c #563A36",
"R&	c #703D3A",
"S&	c #734D3E",
"T&	c #8D5747",
"U&	c #592F35",
"V&	c #191D33",
"W&	c #35142C",
"X&	c #3A3635",
"Y&	c #47313A",
"Z&	c #6E474B",
"`&	c #6F4247",
" *	c #763F49",
".*	c #7A535B",
"+*	c #312E46",
"@*	c #242038",
"#*	c #663B4B",
"$*	c #6C4F5C",
"%*	c #AA6662",
"&*	c #AB5D56",
"**	c #BE765F",
"=*	c #A86352",
"-*	c #9C5654",
";*	c #372735",
">*	c #4A2E42",
",*	c #3F303F",
"'*	c #452B3E",
")*	c #654144",
"!*	c #33313F",
"~*	c #413437",
"{*	c #462C35",
"]*	c #6E433C",
"^*	c #7D483E",
"/*	c #22192D",
"(*	c #7C4A3A",
"_*	c #70514F",
":*	c #332933",
"<*	c #49333A",
"[*	c #3E293C",
"}*	c #482C41",
"|*	c #281E37",
"1*	c #232138",
"2*	c #553B4A",
"3*	c #543848",
"4*	c #9F5F4E",
"5*	c #93514C",
"6*	c #9C5C52",
"7*	c #9A534D",
"8*	c #A8695D",
"9*	c #93524D",
"0*	c #8D4B46",
"a*	c #2A283B",
"b*	c #1D202D",
"c*	c #342232",
"d*	c #191627",
"e*	c #322334",
"f*	c #79443A",
"g*	c #734846",
"h*	c #76453F",
"i*	c #503E37",
"j*	c #30252E",
"k*	c #422F3B",
"l*	c #844A3F",
"m*	c #6F4241",
"n*	c #6A484B",
"o*	c #332728",
"p*	c #2A1929",
"q*	c #2C202C",
"r*	c #232B2E",
"s*	c #35222B",
"t*	c #1F212F",
"u*	c #4C2F35",
"v*	c #4A2F38",
"w*	c #8E544B",
"x*	c #905B4A",
"y*	c #905545",
"z*	c #854E4C",
"A*	c #8C4F4B",
"B*	c #8F5F57",
"C*	c #945546",
"D*	c #886056",
"E*	c #312934",
"F*	c #30262E",
"G*	c #352937",
"H*	c #363331",
"I*	c #7B4B43",
"J*	c #793E3A",
"K*	c #512F35",
"L*	c #332D2D",
"M*	c #422A37",
"N*	c #784C44",
"O*	c #723B38",
"P*	c #714644",
"Q*	c #83564D",
"R*	c #694439",
"S*	c #75473E",
"T*	c #162338",
"U*	c #221928",
"V*	c #7A453D",
"W*	c #2C2A3A",
"X*	c #3F2B33",
"Y*	c #3C2F3D",
"Z*	c #81483C",
"`*	c #7C413E",
" =	c #743F3C",
".=	c #733F3C",
"+=	c #73534F",
"@=	c #875B45",
"#=	c #58323D",
"$=	c #4D3735",
"%=	c #302B34",
"&=	c #2B2D3F",
"*=	c #2B2C40",
"==	c #6B4E4B",
"-=	c #814C44",
"  . + @ # $ % & * = - ; > , ' ) ! ~ { ] ^ / ( _ : < [ } | 1 2 3 ",
"4 5 6 @ 7 8 9 0 a b c d e f g h i j k l m n _ o p q | r 9 s t = ",
"u v p w x y z A B C D E F G H I J K L M N O P Q R S T U V W X Y ",
"Z 8 ` <  ...+.@.#.$.%.&.*.=.-.;.>.,.'.).!.~.{.].^./.(.3 _._ u p ",
":.<.[.}.|.1.2.3.4.5.6.7.8.9.0.a.b.c.d.e.f.g.h.i.j.k.l.m.n.o.p.q.",
"r.s.t.u.v.w.x.y.z.A.B.C.D.E.F.G.H.I.J.K.L.M.N.O.P.Q.R.S.T.U.V.W.",
"X.Y.Z.`. +.+++@+#+$+%+&+*+=+-+;+>+,+'+)+!+~+{+]+^+/+(+_+:+<+X.[+",
"}+|+1+2+3+4+5+6+7+8+9+0+a+b+c+d+e+f+g+h+i+j+k+l+m+n+o+p+q+r+}+s+",
"t+u+v+w+x+y+z+A+B+C+D+E+F+G+H+I+J+K+L+M+N+O+P+Q+R+S+T+U+V+W+X+Y+",
"r+Z+`+ @.@+@@@#@$@%@&@*@=@-@;@>@L+,@,@I+'@)@!@~@{@]@^@/@(@_@:@<@",
"[@}@|@1@2@3@4@5@6@7@8@9@0@a@b@c@d@L+J+e@f@g@F+h@i@j@k@l@m@n@o@p@",
"q@r@s@t@u@v@w@x@8@y@z@A@B@C@D@E@F@G@H@I@J@K@L@M@N@O@P@Q@R@S@T@X+",
"U@V@W@X@Y@Z@`@ #.#+#@#C@##$#%#&#*#G@=#-#;#>#,#D@'#)#!#~#{#]#^#/#",
"(#_#:#<#[#}#|#1#>#2#3#4#K+5#6#7#8#9#0#a#b#c#d#3#e+e#f#g#h#i#j#k#",
"l#m#n#o#p#q#r#s#K+8###t#%#u#B@v#w#*@9#&@=#x#u#2#4#y#z#A#B#C#D#E#",
"F#G#H#I#J#K#L#d#L+M###J+,@N#O#-#P#Q#R#S#s#T#H+7#e@U#V#W#X#Y#Z#`#",
" $.$+$@$#$$$%$7#7#d#&#I+&$-#*$=$c#8@I+5#-$;$>$,$&#'$)$!$~${$]$^$",
"/$($_$:$<$[$}$|$9@J+1$K+2$3$j.4$5$6$7$%#1$8$H+c+F@9$0$a$b$c$d$e$",
"f$g$h$i$j$k$l$m$n$d#e@f@o$;#p$7@4#0@6$7$3#t#a#>$q$r$s$t$u$v$w$x$",
"_@y$z$A$B$C$D$E$F$G+G$3$H$.#I$1$D@&#,@J$6$t#@#K$;#x@L$M$N$O$P$_@",
"Q$V@R$S$T$U$V$S#W$E+X$P#S#Y$R#I+Z$`$I+2# %7$.%6@S#+%@%#%$%%%&%*%",
"=%-%;%>%,%'%)% #!%C@&#&@9#d@s#~%0@9@@#7#'@{%]%a#^%/%(%_%:%<%[%}%",
"|%1%2%3%4%5%6%7%8%.%`$`$a#H+>$G$7#e@~%6$O#9%S#L@0%a%b%c%d%e%F#f%",
"g%h%i%j%k%l%m%n%o%g+p%0@%#0#q%>@H+&#@#r%s%P#!%t%u%v%w%x%y%z%A%B%",
"C%D%E%F%G%H%I%b%J%K%g+L%Z$9@*#q%|$-#g@O#X$s#M@M%N%O%P%Q%R%S%T%U%",
"V%W%X%Y%Z%`% &.&+&@&#&$&%&&&*&S#d@x#;@;#*@=&-&;&>&,&'&)&2%!&~&{&",
"]&^&/&(&_&:&<&[&}&|&1&2&3&4&5&6&7&8&9&0&a&b&c&d&e&f&g&h&i&j&k&l&",
"m&n&o&p&q&r&s&t&u&v&w&x&y&z&A&B&C&D&E&F&G&H&I&J&K&L&M&N&O&P&Q&R&",
"q.S&T&U&V&W&X&Y&^#Z&`& *.*+*@*#*$*%*&***=*-*;*>*,*'*)*!*~*{*:.]*",
"7 ^*s /*v (*_*O :*<*[*}*|*1*2*3*4*5*6*7*8*9*0*a*b*c*d*P e*f*g*h*",
"h*i*j*k*r l*m*n*o*p*q*r*s*t*u*v*w*x*y*z*A*B*C*D*E*F*G*H*I*J*r ^*",
"K*L*M*N*O*P*Q*R*S*T*U*k*V*W*X*Y*Z*`* =.=+=@=#=$=%=&=*===q h*-=W "};
