/* XPM */
static char * south_texture1_xpm[] = {
"32 32 503 2",
"  	c #4A4040",
". 	c #524242",
"+ 	c #4E3F3F",
"@ 	c #4F3F3F",
"# 	c #514242",
"$ 	c #454040",
"% 	c #454444",
"& 	c #4F3C3C",
"* 	c #544646",
"= 	c #424141",
"- 	c #564545",
"; 	c #574646",
"> 	c #554646",
", 	c #534242",
"' 	c #503F3F",
") 	c #4B3B3B",
"! 	c #493737",
"~ 	c #524545",
"{ 	c #4C3F3F",
"] 	c #4B3F3F",
"^ 	c #413C3C",
"/ 	c #AE2F2F",
"( 	c #CB0A0A",
"_ 	c #C50909",
": 	c #B70909",
"< 	c #C00A0A",
"[ 	c #BE0909",
"} 	c #6D2C2C",
"| 	c #5B4C4C",
"1 	c #D71111",
"2 	c #BA0909",
"3 	c #B90909",
"4 	c #B80B0B",
"5 	c #BD0C0C",
"6 	c #BC0C0C",
"7 	c #BF0909",
"8 	c #6F2B2B",
"9 	c #534343",
"0 	c #CF1212",
"a 	c #D00C0C",
"b 	c #C90C0C",
"c 	c #C80B0B",
"d 	c #C00909",
"e 	c #BB0707",
"f 	c #C30606",
"g 	c #B50909",
"h 	c #AD0C0C",
"i 	c #B30909",
"j 	c #702A2A",
"k 	c #9F3232",
"l 	c #980000",
"m 	c #950000",
"n 	c #9C0000",
"o 	c #900000",
"p 	c #830000",
"q 	c #462020",
"r 	c #594C4C",
"s 	c #BB0C0C",
"t 	c #9E0000",
"u 	c #960000",
"v 	c #920000",
"w 	c #880000",
"x 	c #8B0000",
"y 	c #820000",
"z 	c #492020",
"A 	c #554848",
"B 	c #B10A0A",
"C 	c #8F0000",
"D 	c #910000",
"E 	c #870000",
"F 	c #8E0000",
"G 	c #9D0000",
"H 	c #8A0000",
"I 	c #8D0000",
"J 	c #491D1D",
"K 	c #933232",
"L 	c #940000",
"M 	c #7B0000",
"N 	c #3B2020",
"O 	c #534949",
"P 	c #930000",
"Q 	c #860000",
"R 	c #890000",
"S 	c #7F0000",
"T 	c #8C0000",
"U 	c #800000",
"V 	c #421E1E",
"W 	c #A10909",
"X 	c #850000",
"Y 	c #790000",
"Z 	c #970000",
"` 	c #3F1D1D",
" .	c #7C3333",
"..	c #7B0404",
"+.	c #660303",
"@.	c #610303",
"#.	c #580303",
"$.	c #610202",
"%.	c #391F1F",
"&.	c #484242",
"*.	c #840F0F",
"=.	c #690303",
"-.	c #650303",
";.	c #660202",
">.	c #6B0202",
",.	c #5E0303",
"'.	c #640303",
").	c #630202",
"!.	c #5C0303",
"~.	c #483F3F",
"{.	c #870D0D",
"].	c #6A0303",
"^.	c #630303",
"/.	c #5F0202",
"(.	c #640202",
"_.	c #5B0303",
":.	c #6B0303",
"<.	c #391E1E",
"[.	c #574545",
"}.	c #473131",
"|.	c #463535",
"1.	c #483939",
"2.	c #443535",
"3.	c #3E2C2C",
"4.	c #402F2F",
"5.	c #4C4242",
"6.	c #464141",
"7.	c #483A3A",
"8.	c #4E3939",
"9.	c #442C2C",
"0.	c #4C3B3B",
"a.	c #483737",
"b.	c #402C2C",
"c.	c #534848",
"d.	c #4F4040",
"e.	c #4F4141",
"f.	c #514343",
"g.	c #574A4A",
"h.	c #4C3D3D",
"i.	c #3D3434",
"j.	c #363131",
"k.	c #4E3737",
"l.	c #4C3A3A",
"m.	c #4B3939",
"n.	c #B60505",
"o.	c #A40707",
"p.	c #A70909",
"q.	c #A50707",
"r.	c #A40505",
"s.	c #AA0606",
"t.	c #940E0E",
"u.	c #4B4646",
"v.	c #AE3838",
"w.	c #BD0909",
"x.	c #B50606",
"y.	c #B50A0A",
"z.	c #AA0909",
"A.	c #B70606",
"B.	c #AD0909",
"C.	c #A00909",
"D.	c #A60A0A",
"E.	c #AB0C0C",
"F.	c #AF0D0D",
"G.	c #B01010",
"H.	c #B40D0D",
"I.	c #B30B0B",
"J.	c #662E2E",
"K.	c #554444",
"L.	c #D91010",
"M.	c #B60A0A",
"N.	c #B60909",
"O.	c #B80909",
"P.	c #840000",
"Q.	c #9A0000",
"R.	c #5F0404",
"S.	c #393737",
"T.	c #A03232",
"U.	c #3E2424",
"V.	c #534646",
"W.	c #9B0000",
"X.	c #5D0303",
"Y.	c #9F3636",
"Z.	c #730000",
"`.	c #7D0000",
" +	c #7A0000",
".+	c #780000",
"++	c #391B1B",
"@+	c #A80909",
"#+	c #990000",
"$+	c #730303",
"%+	c #5F0303",
"&+	c #6C0303",
"*+	c #6D0202",
"=+	c #4F0707",
"-+	c #3F3E3E",
";+	c #853B3B",
">+	c #7C0505",
",+	c #6C0404",
"'+	c #750303",
")+	c #700404",
"!+	c #680505",
"~+	c #6A0505",
"{+	c #730404",
"]+	c #700303",
"^+	c #6A0202",
"/+	c #670303",
"(+	c #710303",
"_+	c #361919",
":+	c #4C4444",
"<+	c #590303",
"[+	c #6E0303",
"}+	c #4D4141",
"|+	c #4A3333",
"1+	c #493535",
"2+	c #4A3838",
"3+	c #483838",
"4+	c #402E2E",
"5+	c #4E4242",
"6+	c #4D3D3D",
"7+	c #453333",
"8+	c #443232",
"9+	c #433333",
"0+	c #403C3C",
"a+	c #503B3B",
"b+	c #4E3C3C",
"c+	c #452F2F",
"d+	c #432C2C",
"e+	c #483333",
"f+	c #473737",
"g+	c #3F2C2C",
"h+	c #493A3A",
"i+	c #4C4040",
"j+	c #544949",
"k+	c #514040",
"l+	c #443333",
"m+	c #4A3D3D",
"n+	c #423A3A",
"o+	c #B03C3C",
"p+	c #C00707",
"q+	c #B90707",
"r+	c #AB0909",
"s+	c #B60606",
"t+	c #AA0A0A",
"u+	c #A50606",
"v+	c #8C0D0D",
"w+	c #C10909",
"x+	c #C30A0A",
"y+	c #BA0505",
"z+	c #B70707",
"A+	c #9B0909",
"B+	c #9E0808",
"C+	c #A50909",
"D+	c #A70B0B",
"E+	c #A60707",
"F+	c #9F0A0A",
"G+	c #652B2B",
"H+	c #9F2E2E",
"I+	c #7E0000",
"J+	c #7C0000",
"K+	c #710404",
"L+	c #424040",
"M+	c #A64343",
"N+	c #A70000",
"O+	c #710000",
"P+	c #3B1D1D",
"Q+	c #913737",
"R+	c #810000",
"S+	c #413F3F",
"T+	c #A33E3E",
"U+	c #740000",
"V+	c #3A1D1D",
"W+	c #8B3434",
"X+	c #840505",
"Y+	c #620404",
"Z+	c #5F0505",
"`+	c #6D0404",
" @	c #510707",
".@	c #363434",
"+@	c #8D3B3B",
"@@	c #7E0404",
"#@	c #6D0505",
"$@	c #630404",
"%@	c #6E0202",
"&@	c #6F0303",
"*@	c #594B4B",
"=@	c #473535",
"-@	c #3C3232",
";@	c #433F3F",
">@	c #594A4A",
",@	c #524141",
"'@	c #4F3D3D",
")@	c #423030",
"!@	c #423232",
"~@	c #483B3B",
"{@	c #564848",
"]@	c #4A3A3A",
"^@	c #4A3939",
"/@	c #4A3C3C",
"(@	c #3D3030",
"_@	c #4C3535",
":@	c #544444",
"<@	c #493939",
"[@	c #4B3C3C",
"}@	c #473939",
"|@	c #AF0C0C",
"1@	c #B30707",
"2@	c #B20707",
"3@	c #662D2D",
"4@	c #524444",
"5@	c #C11616",
"6@	c #B00C0C",
"7@	c #B20B0B",
"8@	c #B00909",
"9@	c #A70707",
"0@	c #AB0606",
"a@	c #A30606",
"b@	c #9D0606",
"c@	c #AB0A0A",
"d@	c #A20909",
"e@	c #A30909",
"f@	c #A50A0A",
"g@	c #951010",
"h@	c #9E3B3B",
"i@	c #BA0808",
"j@	c #B10C0C",
"k@	c #AF0606",
"l@	c #AD0808",
"m@	c #A70A0A",
"n@	c #3C2020",
"o@	c #544545",
"p@	c #7B0505",
"q@	c #484747",
"r@	c #A44141",
"s@	c #402727",
"t@	c #720505",
"u@	c #9F4141",
"v@	c #720303",
"w@	c #6D0303",
"x@	c #3C2424",
"y@	c #4E4646",
"z@	c #830E0E",
"A@	c #840202",
"B@	c #750202",
"C@	c #790505",
"D@	c #740404",
"E@	c #700202",
"F@	c #680202",
"G@	c #780303",
"H@	c #540707",
"I@	c #3D3C3C",
"J@	c #8B3838",
"K@	c #7A0404",
"L@	c #850505",
"M@	c #7F0707",
"N@	c #7F0303",
"O@	c #7C0202",
"P@	c #760303",
"Q@	c #740303",
"R@	c #493E3E",
"S@	c #4C3939",
"T@	c #483535",
"U@	c #413131",
"V@	c #514646",
"W@	c #504141",
"X@	c #4D3F3F",
"Y@	c #433131",
"Z@	c #3E3B3B",
"`@	c #473A3A",
" #	c #4B3535",
".#	c #594848",
"+#	c #544747",
"@#	c #584C4C",
"##	c #413939",
"$#	c #A63434",
"%#	c #B00707",
"&#	c #AC0707",
"*#	c #A90505",
"=#	c #9E0707",
"-#	c #A10606",
";#	c #A40909",
">#	c #A10B0B",
",#	c #A20B0B",
"'#	c #AB0707",
")#	c #9C0606",
"!#	c #940F0F",
"~#	c #484343",
"{#	c #AE3434",
"]#	c #C10707",
"^#	c #AF0707",
"/#	c #AE0909",
"(#	c #AE0B0B",
"_#	c #A90909",
":#	c #A10A0A",
"<#	c #9B0D0D",
"[#	c #A30E0E",
"}#	c #A20A0A",
"|#	c #A00707",
"1#	c #A40A0A",
"2#	c #6A0404",
"3#	c #333131",
"4#	c #A03636",
"5#	c #3E1D1D",
"6#	c #8A3333",
"7#	c #770303",
"8#	c #7A0303",
"9#	c #780404",
"0#	c #6F0505",
"a#	c #770404",
"b#	c #690202",
"c#	c #5A0303",
"d#	c #650505",
"e#	c #373636",
"f#	c #8C3B3B",
"g#	c #7C0404",
"h#	c #6B0505",
"i#	c #710202",
"j#	c #3B1E1E",
"k#	c #554343",
"l#	c #4D3A3A",
"m#	c #4E3D3D",
"n#	c #4C3E3E",
"o#	c #594D4D",
"p#	c #4D4040",
"q#	c #443636",
"r#	c #3E3C3C",
"s#	c #483131",
"t#	c #4D3B3B",
"u#	c #524343",
"v#	c #473636",
"w#	c #4B4444",
"x#	c #444141",
"y#	c #4C3838",
"z#	c #422C2C",
"A#	c #371F1F",
"B#	c #B20909",
"C#	c #AF0909",
"D#	c #A90A0A",
"E#	c #AD0B0B",
"F#	c #A11010",
"G#	c #A40B0B",
"H#	c #494444",
"I#	c #A73434",
"J#	c #C10606",
"K#	c #B80505",
"L#	c #AE0808",
"M#	c #AC0A0A",
"N#	c #970A0A",
"O#	c #652F2F",
"P#	c #584949",
"Q#	c #C61212",
"R#	c #AE0505",
"S#	c #A30202",
"T#	c #A30505",
"U#	c #680303",
"V#	c #3C3B3B",
"W#	c #9E3030",
"X#	c #402323",
"Y#	c #A70C0C",
"Z#	c #9D2D2D",
"`#	c #750000",
" $	c #700000",
".$	c #760000",
"+$	c #3D3B3B",
"@$	c #9A3636",
"#$	c #3D1E1E",
"$$	c #770000",
"%$	c #442020",
"&$	c #411E1E",
"*$	c #421F1F",
"=$	c #432020",
"-$	c #442121",
";$	c #3A2020",
">$	c #3D3D3D",
",$	c #6A4242",
"'$	c #462828",
")$	c #3F2222",
"!$	c #412020",
"~$	c #422020",
"{$	c #431B1B",
"]$	c #3F1717",
"^$	c #3D1B1B",
"/$	c #2E1F1F",
"($	c #4A4646",
"_$	c #642C2C",
":$	c #3E2020",
"<$	c #431C1C",
"[$	c #411717",
"}$	c #411818",
"|$	c #441F1F",
"1$	c #4D4D4D",
"2$	c #484848",
"3$	c #4A4A4A",
"4$	c #4E4E4E",
"5$	c #525252",
"6$	c #4B4B4B",
"7$	c #515151",
"8$	c #545454",
"9$	c #535353",
"0$	c #505050",
"a$	c #494949",
"b$	c #474747",
"c$	c #4F4F4F",
"d$	c #4C4C4C",
"  . + @ # + $ % & + + + # * * # + + $ = - ; > , ' ) ! + ~ { ] ^ ",
"/ ( _ : < [ } | 1 2 2 3 4 5 6 4 3 7 8 9 0 a b c d e f g h g i j ",
"k l m n o p q r s t u o v u w u x y z A B C D E D F G v H F I J ",
"K L F m p M N O 4 l x P Q R S T y U V ] W T P X Y Z o o x T F ` ",
" ...+.@.#.$.%.&.*.=.-.;.>.,.'.).!.!.%.~.{.-.].=.^.=./.(._.:.'.<.",
"[.}.|.1.2.3.4.5.6.7.8.}.9.0.a.b.a.1.7.c.d.e.f.g.f.h.i.j.k.& l.m.",
"[ n.o.p.q.r.s.t.u.v.w.e x.y.z.A.B.C.p.p.D.E.F.G.H.I.J.K.L.M.N.O.",
"v Z P.Q F U Q.R.S.T.m v m H P.X C H P.x I E P w l y U.V.B W.F u ",
"D C U Q I U L X.S.Y.v D F X Z.`.P  +I y .+w C S F w ++] @+#+T w ",
"$+%+!.&+*+X.&+=+-+;+>+,+'+)+!+~+{+]+^+>./+]+>./.(+/+_+:+t.=.<+[+",
"}+|+1+2+1+3+4+4.5+* 6+7+8+9+0+{ a+b+c+d+e+m.f+g+f+h+i+j+k+l+m+n+",
"o+p+q+O.N.r+s.s+z.t+B.u+x.v+u.o+w+x+A.y+z+i A+u+B+C+D+C+C+E+F+G+",
"H+#+u X X l P Q.I+F m J+D K+L+M+N+o R E m I E X x C o I G D O+P+",
"Q+x y R+p T y v  +o w J+X &+S+T+W.H w o x R+U+`.S P.T m Q U .+V+",
"W+X+=.-.^.].[+]+:.Y+Z+`+&+ @.@+@@@'+&+].^+*+[+#@$@%@].&@&@:.&+<.",
"*@9 h.=@|.-@;@>@,@'@'@f+)@!@~@{@]@^@h./@j.(@_@:@b+c+1+h+<@[@]@}@",
"|@|@I.1@2@3@4@5@6@7@8@9@0@a@b@c@d@e@f@g@u.h@i@j@O.k@l@C+e@m@C+e@",
"I #+#+D Q n@o@p.Z D C T m p P.C F X C p@q@r@D I m o Q.x T o T X ",
"L D Z T p s@{@c@F R R+x C Q `.H p E P t@% u@m Z I m H v F u X X ",
"%+v@'.w@,.x@y@z@A@B@]+C@D@E@F@G@[+v@$+H@I@J@K@K@L@M@N@O@P@Q@G@v@",
"R@S@T@1+=@U@V@b+b.=@^@W@X@Y@b.~@Z@`@ #T@# .#l.h.+#@#) 8+) h.<@##",
"$#N.1@%#&#*#o.=#-#;#p.>#,#'#)#!#~#{#]#^#/#(#_#:#<#[#}#|#1#>#;#G+",
"k R F p T C U T P.Q y U w w R 2#S.k #+U+P.U+Q E X H X I x I y ` ",
"k P P w E v I X J+P.R R E D Q ]+3#4#F x S p E `.`.y R E F T y 5#",
"6#..7#]+8#9#0#a#^+b#c#:.E@]+(+d#e#f#g#[+'+^+G@h#,+[+v@(+i#(+:.j#",
"k#l#m#h.<@n#o#p#q#r#m+s#d+1+t#7+i+u#h.<@<@v#<@w#x#y#m.z#A#4+1.m+",
"B#C#D#F+C+E#F#G#t.H#I#J#K#L#M#'#d@d@D#W W C.N#O#P#Q#r+R#S#T#d@:#",
"D R+T y X I+p I+U#V#W#T I Z.S R T p Q P. +P. +X#r Y#Q I o R S Y ",
"w Q J+p I w .+x ^.V#Z#E x H U `.P.y `#U E  $`#N {@(#R+C Q U p I ",
"Q U .$J+`. +X R+:.+$@$P.R I+.+I+S Y `.F S S U+#$+ C.U+$$x R $$P.",
"%$%$&$*$=$%$-$*$;$>$,$'$)$!$~$%$%$*$%${$]$]$^$/$($_$:$%$<$[$}$|$",
"1$1$2$3$1$4$5$6$1$7$8$9$4$0$4$0$1$6$1$a$2$b$6$a$c$4$1$4$1$a$d$1$"};
